# xmcd
#
# Track frame offsets:
#	150
#	32158
#	51137
#	68887
#	83260
#	106973
#	131577
#	162672
#	184996
#	220994
#	242424
#	262308
#	286183
#	321909
#
# Disc length: 4638 seconds
#
# Revision: 2
# Processed by: cddbd v1.5.2PL0 Copyright (c) Steve Scherf et al.
# Submitted via: EZCDDA 4.3.2
#
DISCID=cd121c0e
DTITLE=Rammstein - In Stahlgewittern
DYEAR=1900
DGENRE=
TTITLE0=Rein Raus
TTITLE1=Feuer Frei
TTITLE2=My Name Is (Feat. Eminem)
TTITLE3=Kokain
TTITLE4=Du Riechst So Gut
TTITLE5=Du Hast (Clawfinger Remix)
TTITLE6=Halleluja
TTITLE7=Feuerräder
TTITLE8=Mein Herz Brennt
TTITLE9=Das Modell
TTITLE10=Alter Mann (Special Version)
TTITLE11=Stripped
TTITLE12=Serbia
TTITLE13=Pet Semetary (Ramones Cover)
EXTD=
EXTT0=
EXTT1=
EXTT2=
EXTT3=
EXTT4=
EXTT5=
EXTT6=
EXTT7=
EXTT8=
EXTT9=
EXTT10=
EXTT11=
EXTT12=
EXTT13=
PLAYORDER=
